<mxfile host="app.diagrams.net" agent="Mozilla/5.0 (Windows NT 10.0; Win64; x64) AppleWebKit/537.36 (KHTML, like Gecko) Chrome/129.0.0.0 Safari/537.36" version="24.7.17">
  <diagram id="PKHQ94GJQ44Wd9_5mF1Y" name="SEQUENCE">
    <mxGraphModel dx="1034" dy="454" grid="1" gridSize="10" guides="1" tooltips="1" connect="1" arrows="1" fold="1" page="1" pageScale="1" pageWidth="850" pageHeight="1100" math="0" shadow="0">
      <root>
        <mxCell id="0" />
        <mxCell id="1" parent="0" />
        <mxCell id="vDCh2_or3-Qsjgu2j-Su-1" value="Pemasok" style="shape=umlLifeline;perimeter=lifelinePerimeter;whiteSpace=wrap;container=1;dropTarget=0;collapsible=0;recursiveResize=0;outlineConnect=0;portConstraint=eastwest;newEdgeStyle={&quot;edgeStyle&quot;:&quot;elbowEdgeStyle&quot;,&quot;elbow&quot;:&quot;vertical&quot;,&quot;curved&quot;:0,&quot;rounded&quot;:0};size=65;fillColor=#76608a;fontColor=#ffffff;strokeColor=#432D57;" parent="1" vertex="1">
          <mxGeometry x="20" y="20" width="150" height="1144" as="geometry" />
        </mxCell>
        <mxCell id="vDCh2_or3-Qsjgu2j-Su-2" value="Admin" style="shape=umlLifeline;perimeter=lifelinePerimeter;whiteSpace=wrap;container=1;dropTarget=0;collapsible=0;recursiveResize=0;outlineConnect=0;portConstraint=eastwest;newEdgeStyle={&quot;edgeStyle&quot;:&quot;elbowEdgeStyle&quot;,&quot;elbow&quot;:&quot;vertical&quot;,&quot;curved&quot;:0,&quot;rounded&quot;:0};size=65;fillColor=#76608a;fontColor=#ffffff;strokeColor=#432D57;" parent="1" vertex="1">
          <mxGeometry x="220" y="20" width="150" height="1144" as="geometry" />
        </mxCell>
        <mxCell id="vDCh2_or3-Qsjgu2j-Su-3" value="Sistem" style="shape=umlLifeline;perimeter=lifelinePerimeter;whiteSpace=wrap;container=1;dropTarget=0;collapsible=0;recursiveResize=0;outlineConnect=0;portConstraint=eastwest;newEdgeStyle={&quot;edgeStyle&quot;:&quot;elbowEdgeStyle&quot;,&quot;elbow&quot;:&quot;vertical&quot;,&quot;curved&quot;:0,&quot;rounded&quot;:0};size=65;fillColor=#76608a;fontColor=#ffffff;strokeColor=#432D57;" parent="1" vertex="1">
          <mxGeometry x="525" y="20" width="150" height="1144" as="geometry" />
        </mxCell>
        <mxCell id="vDCh2_or3-Qsjgu2j-Su-4" value="Pelanggan" style="shape=umlLifeline;perimeter=lifelinePerimeter;whiteSpace=wrap;container=1;dropTarget=0;collapsible=0;recursiveResize=0;outlineConnect=0;portConstraint=eastwest;newEdgeStyle={&quot;edgeStyle&quot;:&quot;elbowEdgeStyle&quot;,&quot;elbow&quot;:&quot;vertical&quot;,&quot;curved&quot;:0,&quot;rounded&quot;:0};size=65;fillColor=#76608a;fontColor=#ffffff;strokeColor=#432D57;" parent="1" vertex="1">
          <mxGeometry x="805" y="20" width="150" height="1144" as="geometry" />
        </mxCell>
        <mxCell id="vDCh2_or3-Qsjgu2j-Su-5" value="alt" style="shape=umlFrame;dashed=1;pointerEvents=0;dropTarget=0;strokeColor=#B3B3B3;height=20;width=30" parent="1" vertex="1">
          <mxGeometry x="284" y="303" width="327" height="300" as="geometry" />
        </mxCell>
        <mxCell id="vDCh2_or3-Qsjgu2j-Su-6" value="[Stok Valid]" style="text;strokeColor=none;fillColor=none;align=center;verticalAlign=middle;whiteSpace=wrap;" parent="vDCh2_or3-Qsjgu2j-Su-5" vertex="1">
          <mxGeometry x="30" width="297" height="20" as="geometry" />
        </mxCell>
        <mxCell id="vDCh2_or3-Qsjgu2j-Su-7" value="[Stok Tidak Valid]" style="shape=line;dashed=1;whiteSpace=wrap;verticalAlign=top;labelPosition=center;verticalLabelPosition=middle;align=center;strokeColor=#B3B3B3;" parent="vDCh2_or3-Qsjgu2j-Su-5" vertex="1">
          <mxGeometry y="155" width="327" height="4" as="geometry" />
        </mxCell>
        <mxCell id="vDCh2_or3-Qsjgu2j-Su-8" value="alt" style="shape=umlFrame;dashed=1;pointerEvents=0;dropTarget=0;strokeColor=#B3B3B3;height=20;width=30" parent="1" vertex="1">
          <mxGeometry x="284" y="769" width="607" height="300" as="geometry" />
        </mxCell>
        <mxCell id="vDCh2_or3-Qsjgu2j-Su-9" value="[Stok Tersedia]" style="text;strokeColor=none;fillColor=none;align=center;verticalAlign=middle;whiteSpace=wrap;" parent="vDCh2_or3-Qsjgu2j-Su-8" vertex="1">
          <mxGeometry x="30" width="577" height="20" as="geometry" />
        </mxCell>
        <mxCell id="vDCh2_or3-Qsjgu2j-Su-10" value="[Stok Tidak Tersedia]" style="shape=line;dashed=1;whiteSpace=wrap;verticalAlign=top;labelPosition=center;verticalLabelPosition=middle;align=center;strokeColor=#B3B3B3;" parent="vDCh2_or3-Qsjgu2j-Su-8" vertex="1">
          <mxGeometry y="207" width="607" height="4" as="geometry" />
        </mxCell>
        <mxCell id="vDCh2_or3-Qsjgu2j-Su-11" value="Kirim Data Barang" style="verticalAlign=bottom;edgeStyle=elbowEdgeStyle;elbow=vertical;curved=0;rounded=0;endArrow=block;" parent="1" source="vDCh2_or3-Qsjgu2j-Su-1" target="vDCh2_or3-Qsjgu2j-Su-3" edge="1">
          <mxGeometry relative="1" as="geometry">
            <Array as="points">
              <mxPoint x="356" y="127" />
            </Array>
          </mxGeometry>
        </mxCell>
        <mxCell id="vDCh2_or3-Qsjgu2j-Su-12" value="Notifikasi Stok Masuk" style="verticalAlign=bottom;edgeStyle=elbowEdgeStyle;elbow=vertical;curved=0;rounded=0;endArrow=block;" parent="1" source="vDCh2_or3-Qsjgu2j-Su-3" target="vDCh2_or3-Qsjgu2j-Su-2" edge="1">
          <mxGeometry relative="1" as="geometry">
            <Array as="points">
              <mxPoint x="459" y="179" />
            </Array>
          </mxGeometry>
        </mxCell>
        <mxCell id="vDCh2_or3-Qsjgu2j-Su-13" value="Verifikasi Stok" style="verticalAlign=bottom;edgeStyle=elbowEdgeStyle;elbow=vertical;curved=0;rounded=0;endArrow=block;" parent="1" source="vDCh2_or3-Qsjgu2j-Su-2" target="vDCh2_or3-Qsjgu2j-Su-3" edge="1">
          <mxGeometry relative="1" as="geometry">
            <Array as="points">
              <mxPoint x="456" y="231" />
            </Array>
          </mxGeometry>
        </mxCell>
        <mxCell id="vDCh2_or3-Qsjgu2j-Su-14" value="Stok Valid/Invalid" style="verticalAlign=bottom;edgeStyle=elbowEdgeStyle;elbow=vertical;curved=0;rounded=0;dashed=1;dashPattern=2 3;endArrow=block;" parent="1" source="vDCh2_or3-Qsjgu2j-Su-3" target="vDCh2_or3-Qsjgu2j-Su-2" edge="1">
          <mxGeometry relative="1" as="geometry">
            <Array as="points">
              <mxPoint x="459" y="283" />
            </Array>
          </mxGeometry>
        </mxCell>
        <mxCell id="vDCh2_or3-Qsjgu2j-Su-15" value="Update Stok" style="verticalAlign=bottom;edgeStyle=elbowEdgeStyle;elbow=vertical;curved=0;rounded=0;endArrow=block;" parent="1" source="vDCh2_or3-Qsjgu2j-Su-2" target="vDCh2_or3-Qsjgu2j-Su-3" edge="1">
          <mxGeometry relative="1" as="geometry">
            <Array as="points">
              <mxPoint x="456" y="381" />
            </Array>
          </mxGeometry>
        </mxCell>
        <mxCell id="vDCh2_or3-Qsjgu2j-Su-16" value="Pencatatan Selesai" style="verticalAlign=bottom;edgeStyle=elbowEdgeStyle;elbow=vertical;curved=0;rounded=0;dashed=1;dashPattern=2 3;endArrow=block;" parent="1" source="vDCh2_or3-Qsjgu2j-Su-3" target="vDCh2_or3-Qsjgu2j-Su-2" edge="1">
          <mxGeometry relative="1" as="geometry">
            <Array as="points">
              <mxPoint x="459" y="433" />
            </Array>
          </mxGeometry>
        </mxCell>
        <mxCell id="vDCh2_or3-Qsjgu2j-Su-17" value="Notifikasi Kesalahan" style="verticalAlign=bottom;edgeStyle=elbowEdgeStyle;elbow=vertical;curved=0;rounded=0;endArrow=block;" parent="1" source="vDCh2_or3-Qsjgu2j-Su-2" target="vDCh2_or3-Qsjgu2j-Su-3" edge="1">
          <mxGeometry relative="1" as="geometry">
            <Array as="points">
              <mxPoint x="456" y="531" />
            </Array>
          </mxGeometry>
        </mxCell>
        <mxCell id="vDCh2_or3-Qsjgu2j-Su-18" value="Tindakan Diperlukan" style="verticalAlign=bottom;edgeStyle=elbowEdgeStyle;elbow=vertical;curved=0;rounded=0;dashed=1;dashPattern=2 3;endArrow=block;" parent="1" source="vDCh2_or3-Qsjgu2j-Su-3" target="vDCh2_or3-Qsjgu2j-Su-2" edge="1">
          <mxGeometry relative="1" as="geometry">
            <Array as="points">
              <mxPoint x="459" y="583" />
            </Array>
          </mxGeometry>
        </mxCell>
        <mxCell id="vDCh2_or3-Qsjgu2j-Su-19" value="Ajukan Permintaan Barang" style="verticalAlign=bottom;edgeStyle=elbowEdgeStyle;elbow=vertical;curved=0;rounded=0;endArrow=block;" parent="1" source="vDCh2_or3-Qsjgu2j-Su-4" target="vDCh2_or3-Qsjgu2j-Su-3" edge="1">
          <mxGeometry relative="1" as="geometry">
            <Array as="points">
              <mxPoint x="752" y="645" />
            </Array>
          </mxGeometry>
        </mxCell>
        <mxCell id="vDCh2_or3-Qsjgu2j-Su-20" value="Cek Ketersediaan Stok" style="verticalAlign=bottom;edgeStyle=elbowEdgeStyle;elbow=vertical;curved=0;rounded=0;endArrow=block;" parent="1" source="vDCh2_or3-Qsjgu2j-Su-3" target="vDCh2_or3-Qsjgu2j-Su-2" edge="1">
          <mxGeometry relative="1" as="geometry">
            <Array as="points">
              <mxPoint x="459" y="697" />
            </Array>
          </mxGeometry>
        </mxCell>
        <mxCell id="vDCh2_or3-Qsjgu2j-Su-21" value="Stok Tersedia?" style="verticalAlign=bottom;edgeStyle=elbowEdgeStyle;elbow=vertical;curved=0;rounded=0;endArrow=block;" parent="1" source="vDCh2_or3-Qsjgu2j-Su-2" target="vDCh2_or3-Qsjgu2j-Su-3" edge="1">
          <mxGeometry relative="1" as="geometry">
            <Array as="points">
              <mxPoint x="456" y="749" />
            </Array>
          </mxGeometry>
        </mxCell>
        <mxCell id="vDCh2_or3-Qsjgu2j-Su-22" value="Proses Pengeluaran Barang" style="verticalAlign=bottom;edgeStyle=elbowEdgeStyle;elbow=vertical;curved=0;rounded=0;endArrow=block;" parent="1" source="vDCh2_or3-Qsjgu2j-Su-2" target="vDCh2_or3-Qsjgu2j-Su-3" edge="1">
          <mxGeometry relative="1" as="geometry">
            <Array as="points">
              <mxPoint x="456" y="847" />
            </Array>
          </mxGeometry>
        </mxCell>
        <mxCell id="vDCh2_or3-Qsjgu2j-Su-23" value="Update Stok Setelah Pengeluaran" style="verticalAlign=bottom;edgeStyle=elbowEdgeStyle;elbow=vertical;curved=0;rounded=0;endArrow=block;" parent="1" source="vDCh2_or3-Qsjgu2j-Su-3" target="vDCh2_or3-Qsjgu2j-Su-2" edge="1">
          <mxGeometry relative="1" as="geometry">
            <Array as="points">
              <mxPoint x="459" y="899" />
            </Array>
          </mxGeometry>
        </mxCell>
        <mxCell id="vDCh2_or3-Qsjgu2j-Su-24" value="Notifikasi Pengeluaran Sukses" style="verticalAlign=bottom;edgeStyle=elbowEdgeStyle;elbow=vertical;curved=0;rounded=0;dashed=1;dashPattern=2 3;endArrow=block;" parent="1" source="vDCh2_or3-Qsjgu2j-Su-3" target="vDCh2_or3-Qsjgu2j-Su-4" edge="1">
          <mxGeometry relative="1" as="geometry">
            <Array as="points">
              <mxPoint x="749" y="951" />
            </Array>
          </mxGeometry>
        </mxCell>
        <mxCell id="vDCh2_or3-Qsjgu2j-Su-25" value="Notifikasi Stok Tidak Tersedia" style="verticalAlign=bottom;edgeStyle=elbowEdgeStyle;elbow=vertical;curved=0;rounded=0;dashed=1;dashPattern=2 3;endArrow=block;" parent="1" source="vDCh2_or3-Qsjgu2j-Su-3" target="vDCh2_or3-Qsjgu2j-Su-4" edge="1">
          <mxGeometry relative="1" as="geometry">
            <Array as="points">
              <mxPoint x="749" y="1049" />
            </Array>
          </mxGeometry>
        </mxCell>
        <mxCell id="vDCh2_or3-Qsjgu2j-Su-27" value="Pemasok" style="rounded=0;whiteSpace=wrap;html=1;fillColor=#76608a;fontColor=#ffffff;strokeColor=#432D57;" parent="1" vertex="1">
          <mxGeometry x="25" y="1170" width="140" height="60" as="geometry" />
        </mxCell>
        <mxCell id="vDCh2_or3-Qsjgu2j-Su-28" value="Pelanggan" style="rounded=0;whiteSpace=wrap;html=1;fillColor=#76608a;fontColor=#ffffff;strokeColor=#432D57;" parent="1" vertex="1">
          <mxGeometry x="810" y="1170" width="140" height="60" as="geometry" />
        </mxCell>
        <mxCell id="vDCh2_or3-Qsjgu2j-Su-29" value="Sistem" style="rounded=0;whiteSpace=wrap;html=1;fillColor=#76608a;fontColor=#ffffff;strokeColor=#432D57;" parent="1" vertex="1">
          <mxGeometry x="530" y="1170" width="140" height="60" as="geometry" />
        </mxCell>
        <mxCell id="vDCh2_or3-Qsjgu2j-Su-30" value="Admin" style="rounded=0;whiteSpace=wrap;html=1;fillColor=#76608a;fontColor=#ffffff;strokeColor=#432D57;" parent="1" vertex="1">
          <mxGeometry x="225" y="1170" width="140" height="60" as="geometry" />
        </mxCell>
      </root>
    </mxGraphModel>
  </diagram>
</mxfile>
